# ProBuilder 4.0.5
# https://unity3d.com/unity/features/worldbuilding/probuilder
# 4/29/2020 10:51:46 PM

mtllib ./Metalic_Circle.mtl
o Metalic_Circle

g Metalic_Circle
v -512 50.00003 115
v -512 50.00003 275
v -362.0387 -312.0387 115
v -362.0387 -312.0387 275
v 0 -462 115
v 0 -462 275
v 362.0387 -312.0387 115
v 362.0387 -312.0387 275
v 512 50.00009 115
v 512 50.00003 275
v 362.0387 412.0387 115
v 362.0387 412.0387 275
v 0 562 115
v 0 562 275
v -362.0386 412.0388 115
v -362.0386 412.0388 275
v 0 510.8002 114.9987
v -325.8347 375.835 114.9985
v -460.8 50.00003 114.9985
v -325.8348 -275.8348 114.9985
v 0 -410.8001 114.9985
v 325.8348 -275.8348 114.9985
v 460.8 50.00009 114.9985
v 325.8348 375.8349 114.9985
v -325.8347 375.835 275.0016
v 0 510.8002 275.0016
v 325.8348 375.8349 275.0015
v 0 -410.8001 275.0015
v -325.8348 -275.8349 275.0015
v -460.8 50.00003 275.0015
v 460.8 50.00003 275.0015
v 325.8348 -275.8349 275.0015
v 0 510.8003 274.9971
v -325.8347 375.8351 274.9971
v -460.8 50.00003 274.9971
v -325.8348 -275.8349 274.9969
v 0 -410.8002 274.9969
v 325.8348 -275.8349 274.9969
v 460.8 50.00009 274.9971
v 325.8348 375.835 274.9971

vt 0 0
vt 0 10
vt 24.49174 0
vt 24.49174 10
vt 17.31828 0
vt 17.31828 10
vt 41.81002 0
vt 41.81002 10
vt -24.49174 0
vt -24.49174 10
vt -41.81001 0
vt -41.81001 10
vt -17.31827 0
vt -17.31827 10
vt 32 -32
vt 9.372587 -22.62742
vt 32 -28.80001
vt 11.63533 -20.36468
vt 3.200001 -6.08072E-12
vt 9.372583 22.62742
vt 11.63533 20.36468
vt 32 32
vt 32 28.80001
vt 54.62742 22.62742
vt 52.36468 20.36468
vt 64 -2.818758E-06
vt 60.8 -2.53899E-06
vt 54.62742 -22.62741
vt 52.36468 -20.36468
vt -9.372709 -22.62712
vt -32.00012 -31.9997
vt -11.63545 -20.36439
vt -32.00012 -28.79971
vt -31.99988 -31.99971
vt -54.6273 -22.62712
vt -31.99988 -28.79971
vt -52.36456 -20.36439
vt -32.00012 31.99971
vt -9.372704 22.62713
vt -32.00012 28.79972
vt -11.63545 20.36439
vt -11.63562 20.36456
vt -3.200293 -0.0001209764
vt -11.63562 -20.36456
vt -63.99971 0.0001194364
vt -52.36438 -20.36456
vt -60.79971 0.0001197162
vt -54.62712 22.6273
vt -52.36438 20.36456
vt -31.99988 31.99971
vt -52.36456 20.36439
vt -31.99988 28.79972
vt 40.58543 -7.866383E-05
vt 18.54287 -7.956561E-05
vt 40.58543 9.999824
vt 18.54287 9.999823
vt 23.26716 -9.033625E-05
vt 1.224587 -8.981594E-05
vt 23.26717 9.999811
vt 1.224589 9.999812
vt -1.224587 -8.903368E-05
vt -23.26716 -9.042073E-05
vt -1.224586 9.999813
vt -23.26716 9.999811
vt -18.54287 -8.549397E-05
vt -40.58543 -8.44884E-05
vt -18.54287 9.999816
vt -40.58543 9.999817

vn -1 4.83867E-08 0
vn -0.7071068 -0.7071068 0
vn 0 -1 0
vn 0.7071068 -0.7071068 0
vn 1 4.83867E-08 3.950249E-08
vn 0.7071068 0.7071068 3.950248E-08
vn 4.83867E-08 1 0
vn -0.7071066 0.7071069 0
vn 1.532253E-07 2.682217E-05 -1
vn -2.138655E-05 2.160327E-05 1
vn 0.3826835 -0.9238795 7.048711E-07
vn 0.9238796 -0.3826834 1.459835E-07
vn 0.9238796 0.3826834 0
vn 0.3826836 0.9238794 3.524355E-07
vn -0.3826836 0.9238795 7.048711E-07
vn -0.9238796 0.3826832 1.459835E-07
vn -0.9238796 -0.3826833 0
vn -0.3826837 -0.9238794 7.048705E-07

g Metalic_Circle
usemtl MetalicCirclePropmat
f 3/3/2 4/4/2 2/2/1 1/1/1
f 5/7/3 6/8/3 4/6/2 3/5/2
f 7/7/4 8/8/4 6/6/3 5/5/3
f 9/3/5 10/4/5 8/2/4 7/1/4
f 11/1/6 12/2/6 10/10/5 9/9/5
f 13/13/7 14/14/7 12/12/6 11/11/6
f 15/13/8 16/14/8 14/12/7 13/11/7
f 1/1/1 2/2/1 16/10/8 15/9/8
f 17/17/9 18/18/9 15/16/9 13/15/9
f 18/18/9 19/19/9 1/1/9 15/16/9
f 19/19/9 20/21/9 3/20/9 1/1/9
f 20/21/9 21/23/9 5/22/9 3/20/9
f 21/23/9 22/25/9 7/24/9 5/22/9
f 22/25/9 23/27/9 9/26/9 7/24/9
f 23/27/9 24/29/9 11/28/9 9/26/9
f 24/29/9 17/17/9 13/15/9 11/28/9
f 25/32/10 26/33/10 14/31/10 16/30/10
f 26/36/10 27/37/10 12/35/10 14/34/10
f 28/40/10 29/41/10 4/39/10 6/38/10
f 29/42/10 30/43/10 2/1/10 4/39/10
f 30/43/10 25/44/10 16/30/10 2/1/10
f 27/46/10 31/47/10 10/45/10 12/35/10
f 31/47/10 32/49/10 8/48/10 10/45/10
f 32/51/10 28/52/10 6/50/10 8/48/10
f 33/55/11 34/56/11 18/54/11 17/53/11
f 34/59/12 35/60/12 19/58/12 18/57/12
f 35/63/13 36/64/13 20/62/13 19/61/13
f 36/67/14 37/68/14 21/66/14 20/65/14
f 37/67/15 38/68/15 22/66/15 21/65/15
f 38/63/16 39/64/16 23/62/16 22/61/16
f 39/59/17 40/60/17 24/58/17 23/57/17
f 40/55/18 33/56/18 17/54/18 24/53/18

